<mxfile host="app.diagrams.net" modified="2024-02-09T11:29:57.816Z" agent="Mozilla/5.0 (Windows NT 10.0; Win64; x64) AppleWebKit/537.36 (KHTML, like Gecko) Chrome/121.0.0.0 Safari/537.36" etag="q06bz2QQoQBm4QUBHCD3" version="23.1.1" type="device">
  <diagram name="Page-1" id="vpfQSm-LX49mschekRqj">
    <mxGraphModel dx="1202" dy="1582" grid="1" gridSize="10" guides="1" tooltips="1" connect="1" arrows="1" fold="1" page="1" pageScale="1" pageWidth="850" pageHeight="1100" math="0" shadow="0">
      <root>
        <mxCell id="0" />
        <mxCell id="1" parent="0" />
        <mxCell id="qj97B0Ygo_D7ESW_nT-5-1" value="&lt;b&gt;VICTIMS&lt;/b&gt;" style="rounded=0;whiteSpace=wrap;html=1;" parent="1" vertex="1">
          <mxGeometry x="490" y="260" width="70" height="30" as="geometry" />
        </mxCell>
        <mxCell id="qj97B0Ygo_D7ESW_nT-5-3" value="CONTACT" style="ellipse;whiteSpace=wrap;html=1;" parent="1" vertex="1">
          <mxGeometry x="305" y="240" width="75" height="30" as="geometry" />
        </mxCell>
        <mxCell id="qj97B0Ygo_D7ESW_nT-5-4" value="CONTACT" style="ellipse;whiteSpace=wrap;html=1;" parent="1" vertex="1">
          <mxGeometry x="400" y="280" width="80" height="30" as="geometry" />
        </mxCell>
        <mxCell id="qj97B0Ygo_D7ESW_nT-5-5" value="LASTNAME" style="ellipse;whiteSpace=wrap;html=1;" parent="1" vertex="1">
          <mxGeometry x="550" y="300" width="80" height="30" as="geometry" />
        </mxCell>
        <mxCell id="qj97B0Ygo_D7ESW_nT-5-6" value="&lt;b&gt;&lt;u&gt;VICTIMID&lt;/u&gt;&lt;/b&gt;" style="ellipse;whiteSpace=wrap;html=1;" parent="1" vertex="1">
          <mxGeometry x="485" y="222.5" width="80" height="30" as="geometry" />
        </mxCell>
        <mxCell id="qj97B0Ygo_D7ESW_nT-5-7" value="&lt;b&gt;&lt;u&gt;SUSPECTID&lt;/u&gt;&lt;/b&gt;" style="ellipse;whiteSpace=wrap;html=1;" parent="1" vertex="1">
          <mxGeometry x="230" y="180" width="80" height="30" as="geometry" />
        </mxCell>
        <mxCell id="qj97B0Ygo_D7ESW_nT-5-8" value="DOB" style="ellipse;whiteSpace=wrap;html=1;" parent="1" vertex="1">
          <mxGeometry x="580" y="237.5" width="50" height="35" as="geometry" />
        </mxCell>
        <mxCell id="qj97B0Ygo_D7ESW_nT-5-10" value="FIRSTNAME" style="ellipse;whiteSpace=wrap;html=1;" parent="1" vertex="1">
          <mxGeometry x="150" y="190" width="80" height="30" as="geometry" />
        </mxCell>
        <mxCell id="qj97B0Ygo_D7ESW_nT-5-11" value="&lt;b&gt;&lt;u&gt;INCIDENTID&lt;/u&gt;&lt;/b&gt;" style="ellipse;whiteSpace=wrap;html=1;" parent="1" vertex="1">
          <mxGeometry x="365" y="50" width="85" height="50" as="geometry" />
        </mxCell>
        <mxCell id="qj97B0Ygo_D7ESW_nT-5-12" value="FIRSTNAME" style="ellipse;whiteSpace=wrap;html=1;" parent="1" vertex="1">
          <mxGeometry x="470" y="310" width="80" height="40" as="geometry" />
        </mxCell>
        <mxCell id="qj97B0Ygo_D7ESW_nT-5-14" value="GENDER" style="ellipse;whiteSpace=wrap;html=1;" parent="1" vertex="1">
          <mxGeometry x="395" y="240" width="90" height="30" as="geometry" />
        </mxCell>
        <mxCell id="qj97B0Ygo_D7ESW_nT-5-15" value="" style="endArrow=none;html=1;rounded=0;entryX=0;entryY=0.5;entryDx=0;entryDy=0;exitX=0.75;exitY=0;exitDx=0;exitDy=0;" parent="1" source="qj97B0Ygo_D7ESW_nT-5-1" target="qj97B0Ygo_D7ESW_nT-5-8" edge="1">
          <mxGeometry width="50" height="50" relative="1" as="geometry">
            <mxPoint x="530" y="300" as="sourcePoint" />
            <mxPoint x="580" y="250" as="targetPoint" />
          </mxGeometry>
        </mxCell>
        <mxCell id="qj97B0Ygo_D7ESW_nT-5-16" value="" style="endArrow=none;html=1;rounded=0;exitX=0.25;exitY=1;exitDx=0;exitDy=0;entryX=0.5;entryY=0;entryDx=0;entryDy=0;" parent="1" source="qj97B0Ygo_D7ESW_nT-5-1" target="qj97B0Ygo_D7ESW_nT-5-12" edge="1">
          <mxGeometry width="50" height="50" relative="1" as="geometry">
            <mxPoint x="530" y="300" as="sourcePoint" />
            <mxPoint x="580" y="250" as="targetPoint" />
          </mxGeometry>
        </mxCell>
        <mxCell id="qj97B0Ygo_D7ESW_nT-5-17" value="" style="endArrow=none;html=1;rounded=0;entryX=1;entryY=0.5;entryDx=0;entryDy=0;exitX=0;exitY=0.75;exitDx=0;exitDy=0;" parent="1" source="qj97B0Ygo_D7ESW_nT-5-1" target="qj97B0Ygo_D7ESW_nT-5-4" edge="1">
          <mxGeometry width="50" height="50" relative="1" as="geometry">
            <mxPoint x="530" y="300" as="sourcePoint" />
            <mxPoint x="580" y="250" as="targetPoint" />
          </mxGeometry>
        </mxCell>
        <mxCell id="qj97B0Ygo_D7ESW_nT-5-18" value="" style="endArrow=none;html=1;rounded=0;entryX=0.5;entryY=1;entryDx=0;entryDy=0;exitX=0.25;exitY=0;exitDx=0;exitDy=0;" parent="1" source="qj97B0Ygo_D7ESW_nT-5-1" target="qj97B0Ygo_D7ESW_nT-5-6" edge="1">
          <mxGeometry width="50" height="50" relative="1" as="geometry">
            <mxPoint x="530" y="300" as="sourcePoint" />
            <mxPoint x="580" y="250" as="targetPoint" />
          </mxGeometry>
        </mxCell>
        <mxCell id="qj97B0Ygo_D7ESW_nT-5-19" value="" style="endArrow=none;html=1;rounded=0;entryX=1;entryY=1;entryDx=0;entryDy=0;exitX=0;exitY=0.25;exitDx=0;exitDy=0;" parent="1" source="qj97B0Ygo_D7ESW_nT-5-1" target="qj97B0Ygo_D7ESW_nT-5-14" edge="1">
          <mxGeometry width="50" height="50" relative="1" as="geometry">
            <mxPoint x="490" y="280" as="sourcePoint" />
            <mxPoint x="580" y="250" as="targetPoint" />
          </mxGeometry>
        </mxCell>
        <mxCell id="qj97B0Ygo_D7ESW_nT-5-20" value="" style="endArrow=none;html=1;rounded=0;entryX=0.5;entryY=0;entryDx=0;entryDy=0;exitX=1;exitY=0.5;exitDx=0;exitDy=0;" parent="1" source="qj97B0Ygo_D7ESW_nT-5-1" target="qj97B0Ygo_D7ESW_nT-5-5" edge="1">
          <mxGeometry width="50" height="50" relative="1" as="geometry">
            <mxPoint x="490" y="320" as="sourcePoint" />
            <mxPoint x="540" y="270" as="targetPoint" />
          </mxGeometry>
        </mxCell>
        <mxCell id="qj97B0Ygo_D7ESW_nT-5-21" value="&lt;b&gt;SUSPECTS&lt;/b&gt;" style="rounded=0;whiteSpace=wrap;html=1;" parent="1" vertex="1">
          <mxGeometry x="235" y="225" width="70" height="25" as="geometry" />
        </mxCell>
        <mxCell id="qj97B0Ygo_D7ESW_nT-5-22" value="LASTNAME" style="ellipse;whiteSpace=wrap;html=1;" parent="1" vertex="1">
          <mxGeometry x="140" y="235" width="80" height="30" as="geometry" />
        </mxCell>
        <mxCell id="qj97B0Ygo_D7ESW_nT-5-23" value="DOB" style="ellipse;whiteSpace=wrap;html=1;" parent="1" vertex="1">
          <mxGeometry x="315" y="205" width="70" height="30" as="geometry" />
        </mxCell>
        <mxCell id="qj97B0Ygo_D7ESW_nT-5-24" value="GENDER" style="ellipse;whiteSpace=wrap;html=1;" parent="1" vertex="1">
          <mxGeometry x="220" y="265" width="80" height="20" as="geometry" />
        </mxCell>
        <mxCell id="qj97B0Ygo_D7ESW_nT-5-25" value="" style="endArrow=none;html=1;rounded=0;entryX=0.5;entryY=1;entryDx=0;entryDy=0;exitX=0.5;exitY=0;exitDx=0;exitDy=0;" parent="1" source="qj97B0Ygo_D7ESW_nT-5-21" target="qj97B0Ygo_D7ESW_nT-5-7" edge="1">
          <mxGeometry width="50" height="50" relative="1" as="geometry">
            <mxPoint x="300" y="240" as="sourcePoint" />
            <mxPoint x="350" y="190" as="targetPoint" />
          </mxGeometry>
        </mxCell>
        <mxCell id="qj97B0Ygo_D7ESW_nT-5-26" value="" style="endArrow=none;html=1;rounded=0;entryX=0.5;entryY=1;entryDx=0;entryDy=0;exitX=0;exitY=0;exitDx=0;exitDy=0;" parent="1" source="qj97B0Ygo_D7ESW_nT-5-21" target="qj97B0Ygo_D7ESW_nT-5-10" edge="1">
          <mxGeometry width="50" height="50" relative="1" as="geometry">
            <mxPoint x="300" y="240" as="sourcePoint" />
            <mxPoint x="350" y="190" as="targetPoint" />
          </mxGeometry>
        </mxCell>
        <mxCell id="qj97B0Ygo_D7ESW_nT-5-27" value="" style="endArrow=none;html=1;rounded=0;entryX=1;entryY=0;entryDx=0;entryDy=0;exitX=0;exitY=0.75;exitDx=0;exitDy=0;" parent="1" source="qj97B0Ygo_D7ESW_nT-5-21" target="qj97B0Ygo_D7ESW_nT-5-22" edge="1">
          <mxGeometry width="50" height="50" relative="1" as="geometry">
            <mxPoint x="300" y="240" as="sourcePoint" />
            <mxPoint x="350" y="190" as="targetPoint" />
          </mxGeometry>
        </mxCell>
        <mxCell id="qj97B0Ygo_D7ESW_nT-5-28" value="" style="endArrow=none;html=1;rounded=0;entryX=0.5;entryY=1;entryDx=0;entryDy=0;exitX=0.5;exitY=0;exitDx=0;exitDy=0;" parent="1" source="qj97B0Ygo_D7ESW_nT-5-24" target="qj97B0Ygo_D7ESW_nT-5-21" edge="1">
          <mxGeometry width="50" height="50" relative="1" as="geometry">
            <mxPoint x="300" y="240" as="sourcePoint" />
            <mxPoint x="350" y="190" as="targetPoint" />
          </mxGeometry>
        </mxCell>
        <mxCell id="qj97B0Ygo_D7ESW_nT-5-29" value="" style="endArrow=none;html=1;rounded=0;exitX=0.75;exitY=0;exitDx=0;exitDy=0;entryX=0;entryY=1;entryDx=0;entryDy=0;" parent="1" source="qj97B0Ygo_D7ESW_nT-5-21" target="qj97B0Ygo_D7ESW_nT-5-23" edge="1">
          <mxGeometry width="50" height="50" relative="1" as="geometry">
            <mxPoint x="300" y="240" as="sourcePoint" />
            <mxPoint x="350" y="190" as="targetPoint" />
          </mxGeometry>
        </mxCell>
        <mxCell id="qj97B0Ygo_D7ESW_nT-5-30" value="" style="endArrow=none;html=1;rounded=0;entryX=0.5;entryY=0;entryDx=0;entryDy=0;exitX=1;exitY=0.25;exitDx=0;exitDy=0;" parent="1" source="qj97B0Ygo_D7ESW_nT-5-21" target="qj97B0Ygo_D7ESW_nT-5-3" edge="1">
          <mxGeometry width="50" height="50" relative="1" as="geometry">
            <mxPoint x="300" y="240" as="sourcePoint" />
            <mxPoint x="350" y="190" as="targetPoint" />
          </mxGeometry>
        </mxCell>
        <mxCell id="qj97B0Ygo_D7ESW_nT-5-31" value="&lt;b&gt;INCIDENTS&lt;/b&gt;" style="rounded=0;whiteSpace=wrap;html=1;" parent="1" vertex="1">
          <mxGeometry x="375" y="130" width="90" height="30" as="geometry" />
        </mxCell>
        <mxCell id="qj97B0Ygo_D7ESW_nT-5-32" value="" style="endArrow=none;html=1;rounded=0;exitX=0.75;exitY=0;exitDx=0;exitDy=0;entryX=0.25;entryY=1;entryDx=0;entryDy=0;" parent="1" source="qj97B0Ygo_D7ESW_nT-5-21" target="qj97B0Ygo_D7ESW_nT-5-31" edge="1">
          <mxGeometry width="50" height="50" relative="1" as="geometry">
            <mxPoint x="380" y="160" as="sourcePoint" />
            <mxPoint x="430" y="110" as="targetPoint" />
          </mxGeometry>
        </mxCell>
        <mxCell id="qj97B0Ygo_D7ESW_nT-5-33" value="" style="endArrow=none;html=1;rounded=0;entryX=0.086;entryY=-0.05;entryDx=0;entryDy=0;entryPerimeter=0;exitX=0.5;exitY=1;exitDx=0;exitDy=0;" parent="1" source="qj97B0Ygo_D7ESW_nT-5-31" target="qj97B0Ygo_D7ESW_nT-5-1" edge="1">
          <mxGeometry width="50" height="50" relative="1" as="geometry">
            <mxPoint x="380" y="160" as="sourcePoint" />
            <mxPoint x="430" y="110" as="targetPoint" />
          </mxGeometry>
        </mxCell>
        <mxCell id="qj97B0Ygo_D7ESW_nT-5-34" value="" style="endArrow=none;html=1;rounded=0;entryX=0.5;entryY=1;entryDx=0;entryDy=0;exitX=0.5;exitY=0;exitDx=0;exitDy=0;" parent="1" source="qj97B0Ygo_D7ESW_nT-5-31" target="qj97B0Ygo_D7ESW_nT-5-11" edge="1">
          <mxGeometry width="50" height="50" relative="1" as="geometry">
            <mxPoint x="380" y="160" as="sourcePoint" />
            <mxPoint x="430" y="110" as="targetPoint" />
          </mxGeometry>
        </mxCell>
        <mxCell id="qj97B0Ygo_D7ESW_nT-5-35" value="INCIDENTTYPE" style="ellipse;whiteSpace=wrap;html=1;" parent="1" vertex="1">
          <mxGeometry x="270" y="80" width="95" height="40" as="geometry" />
        </mxCell>
        <mxCell id="qj97B0Ygo_D7ESW_nT-5-36" value="LOCATION" style="ellipse;whiteSpace=wrap;html=1;" parent="1" vertex="1">
          <mxGeometry x="485" y="50" width="85" height="30" as="geometry" />
        </mxCell>
        <mxCell id="qj97B0Ygo_D7ESW_nT-5-37" value="DESCRIPTION" style="ellipse;whiteSpace=wrap;html=1;" parent="1" vertex="1">
          <mxGeometry x="260" y="130" width="100" height="30" as="geometry" />
        </mxCell>
        <mxCell id="qj97B0Ygo_D7ESW_nT-5-38" value="STATUS" style="ellipse;whiteSpace=wrap;html=1;" parent="1" vertex="1">
          <mxGeometry x="470" y="125" width="80" height="30" as="geometry" />
        </mxCell>
        <mxCell id="qj97B0Ygo_D7ESW_nT-5-39" value="" style="endArrow=none;html=1;rounded=0;entryX=1;entryY=1;entryDx=0;entryDy=0;exitX=0.25;exitY=0;exitDx=0;exitDy=0;" parent="1" source="qj97B0Ygo_D7ESW_nT-5-31" target="qj97B0Ygo_D7ESW_nT-5-35" edge="1">
          <mxGeometry width="50" height="50" relative="1" as="geometry">
            <mxPoint x="380" y="160" as="sourcePoint" />
            <mxPoint x="430" y="110" as="targetPoint" />
          </mxGeometry>
        </mxCell>
        <mxCell id="qj97B0Ygo_D7ESW_nT-5-40" value="" style="endArrow=none;html=1;rounded=0;entryX=0;entryY=1;entryDx=0;entryDy=0;exitX=0.75;exitY=0;exitDx=0;exitDy=0;" parent="1" source="qj97B0Ygo_D7ESW_nT-5-31" target="qj97B0Ygo_D7ESW_nT-5-36" edge="1">
          <mxGeometry width="50" height="50" relative="1" as="geometry">
            <mxPoint x="380" y="160" as="sourcePoint" />
            <mxPoint x="430" y="110" as="targetPoint" />
          </mxGeometry>
        </mxCell>
        <mxCell id="qj97B0Ygo_D7ESW_nT-5-41" value="" style="endArrow=none;html=1;rounded=0;entryX=1;entryY=1;entryDx=0;entryDy=0;exitX=0;exitY=0.5;exitDx=0;exitDy=0;" parent="1" source="qj97B0Ygo_D7ESW_nT-5-31" target="qj97B0Ygo_D7ESW_nT-5-37" edge="1">
          <mxGeometry width="50" height="50" relative="1" as="geometry">
            <mxPoint x="380" y="160" as="sourcePoint" />
            <mxPoint x="430" y="110" as="targetPoint" />
          </mxGeometry>
        </mxCell>
        <mxCell id="qj97B0Ygo_D7ESW_nT-5-42" value="" style="endArrow=none;html=1;rounded=0;entryX=0.5;entryY=1;entryDx=0;entryDy=0;exitX=1;exitY=0.75;exitDx=0;exitDy=0;" parent="1" source="qj97B0Ygo_D7ESW_nT-5-31" target="qj97B0Ygo_D7ESW_nT-5-38" edge="1">
          <mxGeometry width="50" height="50" relative="1" as="geometry">
            <mxPoint x="380" y="160" as="sourcePoint" />
            <mxPoint x="430" y="110" as="targetPoint" />
          </mxGeometry>
        </mxCell>
        <mxCell id="qj97B0Ygo_D7ESW_nT-5-52" value="VICTIMID" style="ellipse;whiteSpace=wrap;html=1;align=center;dashed=1;" parent="1" vertex="1">
          <mxGeometry x="425" y="10" width="100" height="40" as="geometry" />
        </mxCell>
        <mxCell id="qj97B0Ygo_D7ESW_nT-5-53" value="SUSPECTID" style="ellipse;whiteSpace=wrap;html=1;align=center;dashed=1;" parent="1" vertex="1">
          <mxGeometry x="300" y="20" width="100" height="40" as="geometry" />
        </mxCell>
        <mxCell id="qj97B0Ygo_D7ESW_nT-5-54" value="" style="endArrow=none;html=1;rounded=0;entryX=0.5;entryY=1;entryDx=0;entryDy=0;exitX=0.25;exitY=0;exitDx=0;exitDy=0;" parent="1" source="qj97B0Ygo_D7ESW_nT-5-31" target="qj97B0Ygo_D7ESW_nT-5-53" edge="1">
          <mxGeometry width="50" height="50" relative="1" as="geometry">
            <mxPoint x="380" y="160" as="sourcePoint" />
            <mxPoint x="430" y="110" as="targetPoint" />
          </mxGeometry>
        </mxCell>
        <mxCell id="qj97B0Ygo_D7ESW_nT-5-56" value="" style="endArrow=none;html=1;rounded=0;entryX=0.42;entryY=1.062;entryDx=0;entryDy=0;entryPerimeter=0;exitX=0.75;exitY=0;exitDx=0;exitDy=0;" parent="1" source="qj97B0Ygo_D7ESW_nT-5-31" target="qj97B0Ygo_D7ESW_nT-5-52" edge="1">
          <mxGeometry width="50" height="50" relative="1" as="geometry">
            <mxPoint x="380" y="160" as="sourcePoint" />
            <mxPoint x="430" y="110" as="targetPoint" />
          </mxGeometry>
        </mxCell>
        <mxCell id="qj97B0Ygo_D7ESW_nT-5-57" value="&lt;b&gt;LEA&lt;/b&gt;" style="rounded=0;whiteSpace=wrap;html=1;" parent="1" vertex="1">
          <mxGeometry x="660" y="120" width="70" height="20" as="geometry" />
        </mxCell>
        <mxCell id="qj97B0Ygo_D7ESW_nT-5-58" value="CONTACT" style="ellipse;whiteSpace=wrap;html=1;" parent="1" vertex="1">
          <mxGeometry x="580" y="100" width="70" height="30" as="geometry" />
        </mxCell>
        <mxCell id="qj97B0Ygo_D7ESW_nT-5-59" value="JURISDICTION" style="ellipse;whiteSpace=wrap;html=1;" parent="1" vertex="1">
          <mxGeometry x="570" y="150" width="100" height="30" as="geometry" />
        </mxCell>
        <mxCell id="qj97B0Ygo_D7ESW_nT-5-60" value="AGENCYNAME" style="ellipse;whiteSpace=wrap;html=1;" parent="1" vertex="1">
          <mxGeometry x="670" y="170" width="90" height="40" as="geometry" />
        </mxCell>
        <mxCell id="qj97B0Ygo_D7ESW_nT-5-61" value="&lt;b&gt;&lt;u&gt;AGENCYID&lt;/u&gt;&lt;/b&gt;" style="ellipse;whiteSpace=wrap;html=1;" parent="1" vertex="1">
          <mxGeometry x="660" y="80" width="70" height="30" as="geometry" />
        </mxCell>
        <mxCell id="qj97B0Ygo_D7ESW_nT-5-63" value="" style="endArrow=none;html=1;rounded=0;entryX=0.5;entryY=1;entryDx=0;entryDy=0;exitX=0.5;exitY=0;exitDx=0;exitDy=0;" parent="1" source="qj97B0Ygo_D7ESW_nT-5-57" target="qj97B0Ygo_D7ESW_nT-5-61" edge="1">
          <mxGeometry width="50" height="50" relative="1" as="geometry">
            <mxPoint x="600" y="130" as="sourcePoint" />
            <mxPoint x="650" y="80" as="targetPoint" />
          </mxGeometry>
        </mxCell>
        <mxCell id="qj97B0Ygo_D7ESW_nT-5-64" value="" style="endArrow=none;html=1;rounded=0;entryX=1;entryY=1;entryDx=0;entryDy=0;exitX=0;exitY=0.5;exitDx=0;exitDy=0;" parent="1" source="qj97B0Ygo_D7ESW_nT-5-57" target="qj97B0Ygo_D7ESW_nT-5-58" edge="1">
          <mxGeometry width="50" height="50" relative="1" as="geometry">
            <mxPoint x="600" y="130" as="sourcePoint" />
            <mxPoint x="650" y="80" as="targetPoint" />
          </mxGeometry>
        </mxCell>
        <mxCell id="qj97B0Ygo_D7ESW_nT-5-65" value="" style="endArrow=none;html=1;rounded=0;entryX=0.25;entryY=1;entryDx=0;entryDy=0;exitX=1;exitY=0;exitDx=0;exitDy=0;" parent="1" source="qj97B0Ygo_D7ESW_nT-5-59" target="qj97B0Ygo_D7ESW_nT-5-57" edge="1">
          <mxGeometry width="50" height="50" relative="1" as="geometry">
            <mxPoint x="600" y="130" as="sourcePoint" />
            <mxPoint x="650" y="80" as="targetPoint" />
          </mxGeometry>
        </mxCell>
        <mxCell id="qj97B0Ygo_D7ESW_nT-5-66" value="" style="endArrow=none;html=1;rounded=0;entryX=0.75;entryY=1;entryDx=0;entryDy=0;exitX=0.5;exitY=0;exitDx=0;exitDy=0;" parent="1" source="qj97B0Ygo_D7ESW_nT-5-60" target="qj97B0Ygo_D7ESW_nT-5-57" edge="1">
          <mxGeometry width="50" height="50" relative="1" as="geometry">
            <mxPoint x="600" y="130" as="sourcePoint" />
            <mxPoint x="650" y="80" as="targetPoint" />
          </mxGeometry>
        </mxCell>
        <mxCell id="qj97B0Ygo_D7ESW_nT-5-67" value="&lt;b&gt;&lt;u&gt;OFFICERID&lt;/u&gt;&lt;/b&gt;" style="ellipse;whiteSpace=wrap;html=1;" parent="1" vertex="1">
          <mxGeometry x="830" y="45" width="80" height="30" as="geometry" />
        </mxCell>
        <mxCell id="qj97B0Ygo_D7ESW_nT-5-68" value="&lt;b&gt;OFFICERS&lt;/b&gt;" style="rounded=0;whiteSpace=wrap;html=1;" parent="1" vertex="1">
          <mxGeometry x="780" y="120" width="70" height="20" as="geometry" />
        </mxCell>
        <mxCell id="qj97B0Ygo_D7ESW_nT-5-69" value="" style="endArrow=none;html=1;rounded=0;exitX=1;exitY=0.5;exitDx=0;exitDy=0;entryX=0;entryY=0.5;entryDx=0;entryDy=0;fillColor=#FF6666;" parent="1" source="qj97B0Ygo_D7ESW_nT-5-57" target="qj97B0Ygo_D7ESW_nT-5-68" edge="1">
          <mxGeometry width="50" height="50" relative="1" as="geometry">
            <mxPoint x="770" y="130" as="sourcePoint" />
            <mxPoint x="820" y="80" as="targetPoint" />
          </mxGeometry>
        </mxCell>
        <mxCell id="qj97B0Ygo_D7ESW_nT-5-70" value="" style="endArrow=none;html=1;rounded=0;entryX=0.5;entryY=1;entryDx=0;entryDy=0;exitX=0.5;exitY=0;exitDx=0;exitDy=0;" parent="1" source="qj97B0Ygo_D7ESW_nT-5-68" target="qj97B0Ygo_D7ESW_nT-5-67" edge="1">
          <mxGeometry width="50" height="50" relative="1" as="geometry">
            <mxPoint x="770" y="130" as="sourcePoint" />
            <mxPoint x="820" y="80" as="targetPoint" />
          </mxGeometry>
        </mxCell>
        <mxCell id="qj97B0Ygo_D7ESW_nT-5-71" value="LASTNAME" style="ellipse;whiteSpace=wrap;html=1;" parent="1" vertex="1">
          <mxGeometry x="850" y="90" width="80" height="20" as="geometry" />
        </mxCell>
        <mxCell id="qj97B0Ygo_D7ESW_nT-5-72" value="RANK" style="ellipse;whiteSpace=wrap;html=1;" parent="1" vertex="1">
          <mxGeometry x="765" y="60" width="70" height="40" as="geometry" />
        </mxCell>
        <mxCell id="qj97B0Ygo_D7ESW_nT-5-74" value="FIRSTNAME" style="ellipse;whiteSpace=wrap;html=1;" parent="1" vertex="1">
          <mxGeometry x="840" y="160" width="70" height="40" as="geometry" />
        </mxCell>
        <mxCell id="qj97B0Ygo_D7ESW_nT-5-75" value="CONTACT" style="ellipse;whiteSpace=wrap;html=1;" parent="1" vertex="1">
          <mxGeometry x="775" y="150" width="60" height="30" as="geometry" />
        </mxCell>
        <mxCell id="qj97B0Ygo_D7ESW_nT-5-76" value="" style="endArrow=none;html=1;rounded=0;entryX=1;entryY=1;entryDx=0;entryDy=0;exitX=0.25;exitY=0;exitDx=0;exitDy=0;" parent="1" source="qj97B0Ygo_D7ESW_nT-5-68" target="qj97B0Ygo_D7ESW_nT-5-72" edge="1">
          <mxGeometry width="50" height="50" relative="1" as="geometry">
            <mxPoint x="770" y="130" as="sourcePoint" />
            <mxPoint x="820" y="80" as="targetPoint" />
          </mxGeometry>
        </mxCell>
        <mxCell id="qj97B0Ygo_D7ESW_nT-5-77" value="" style="endArrow=none;html=1;rounded=0;entryX=1;entryY=1;entryDx=0;entryDy=0;exitX=0.5;exitY=0;exitDx=0;exitDy=0;" parent="1" source="qj97B0Ygo_D7ESW_nT-5-74" target="qj97B0Ygo_D7ESW_nT-5-68" edge="1">
          <mxGeometry width="50" height="50" relative="1" as="geometry">
            <mxPoint x="770" y="130" as="sourcePoint" />
            <mxPoint x="820" y="80" as="targetPoint" />
          </mxGeometry>
        </mxCell>
        <mxCell id="qj97B0Ygo_D7ESW_nT-5-78" value="" style="endArrow=none;html=1;rounded=0;entryX=0.5;entryY=1;entryDx=0;entryDy=0;exitX=1;exitY=0;exitDx=0;exitDy=0;" parent="1" source="qj97B0Ygo_D7ESW_nT-5-68" target="qj97B0Ygo_D7ESW_nT-5-71" edge="1">
          <mxGeometry width="50" height="50" relative="1" as="geometry">
            <mxPoint x="770" y="130" as="sourcePoint" />
            <mxPoint x="900.2512626584712" y="75.60660171779796" as="targetPoint" />
          </mxGeometry>
        </mxCell>
        <mxCell id="qj97B0Ygo_D7ESW_nT-5-81" value="AGENCYID" style="ellipse;whiteSpace=wrap;html=1;align=center;dashed=1;" parent="1" vertex="1">
          <mxGeometry x="880" y="125" width="70" height="20" as="geometry" />
        </mxCell>
        <mxCell id="qj97B0Ygo_D7ESW_nT-5-82" value="" style="endArrow=none;html=1;rounded=0;entryX=0;entryY=0;entryDx=0;entryDy=0;exitX=1;exitY=0.75;exitDx=0;exitDy=0;" parent="1" source="qj97B0Ygo_D7ESW_nT-5-68" target="qj97B0Ygo_D7ESW_nT-5-81" edge="1">
          <mxGeometry width="50" height="50" relative="1" as="geometry">
            <mxPoint x="770" y="130" as="sourcePoint" />
            <mxPoint x="820" y="80" as="targetPoint" />
          </mxGeometry>
        </mxCell>
        <mxCell id="qj97B0Ygo_D7ESW_nT-5-83" value="" style="endArrow=none;html=1;rounded=0;entryX=0.5;entryY=1;entryDx=0;entryDy=0;exitX=0.5;exitY=0;exitDx=0;exitDy=0;" parent="1" source="qj97B0Ygo_D7ESW_nT-5-75" target="qj97B0Ygo_D7ESW_nT-5-68" edge="1">
          <mxGeometry width="50" height="50" relative="1" as="geometry">
            <mxPoint x="950" y="240" as="sourcePoint" />
            <mxPoint x="1000" y="190" as="targetPoint" />
          </mxGeometry>
        </mxCell>
        <mxCell id="qj97B0Ygo_D7ESW_nT-5-84" value="" style="endArrow=none;html=1;rounded=0;entryX=0.336;entryY=0.933;entryDx=0;entryDy=0;entryPerimeter=0;" parent="1" source="qj97B0Ygo_D7ESW_nT-5-85" target="qj97B0Ygo_D7ESW_nT-5-31" edge="1">
          <mxGeometry width="50" height="50" relative="1" as="geometry">
            <mxPoint x="370" y="360" as="sourcePoint" />
            <mxPoint x="660" y="170" as="targetPoint" />
          </mxGeometry>
        </mxCell>
        <mxCell id="qj97B0Ygo_D7ESW_nT-5-85" value="&lt;b&gt;EVIDENCE&lt;/b&gt;" style="rounded=0;whiteSpace=wrap;html=1;" parent="1" vertex="1">
          <mxGeometry x="330" y="320" width="80" height="30" as="geometry" />
        </mxCell>
        <mxCell id="qj97B0Ygo_D7ESW_nT-5-86" value="INCIDENTID" style="ellipse;whiteSpace=wrap;html=1;align=center;dashed=1;" parent="1" vertex="1">
          <mxGeometry x="292.5" y="370" width="100" height="40" as="geometry" />
        </mxCell>
        <mxCell id="qj97B0Ygo_D7ESW_nT-5-87" value="&lt;b&gt;&lt;u&gt;EVIDENCEID&lt;/u&gt;&lt;/b&gt;" style="ellipse;whiteSpace=wrap;html=1;" parent="1" vertex="1">
          <mxGeometry x="195" y="300" width="95" height="30" as="geometry" />
        </mxCell>
        <mxCell id="qj97B0Ygo_D7ESW_nT-5-88" value="LOCATION FOUND" style="ellipse;whiteSpace=wrap;html=1;" parent="1" vertex="1">
          <mxGeometry x="395" y="360" width="135" height="50" as="geometry" />
        </mxCell>
        <mxCell id="qj97B0Ygo_D7ESW_nT-5-89" value="DESCRIPTION" style="ellipse;whiteSpace=wrap;html=1;" parent="1" vertex="1">
          <mxGeometry x="195" y="340" width="105" height="40" as="geometry" />
        </mxCell>
        <mxCell id="qj97B0Ygo_D7ESW_nT-5-91" value="" style="endArrow=none;html=1;rounded=0;entryX=1;entryY=0.5;entryDx=0;entryDy=0;exitX=0;exitY=0.5;exitDx=0;exitDy=0;" parent="1" source="qj97B0Ygo_D7ESW_nT-5-85" target="qj97B0Ygo_D7ESW_nT-5-87" edge="1">
          <mxGeometry width="50" height="50" relative="1" as="geometry">
            <mxPoint x="550" y="220" as="sourcePoint" />
            <mxPoint x="600" y="170" as="targetPoint" />
          </mxGeometry>
        </mxCell>
        <mxCell id="qj97B0Ygo_D7ESW_nT-5-92" value="" style="endArrow=none;html=1;rounded=0;entryX=1;entryY=0;entryDx=0;entryDy=0;exitX=0.25;exitY=1;exitDx=0;exitDy=0;" parent="1" source="qj97B0Ygo_D7ESW_nT-5-85" target="qj97B0Ygo_D7ESW_nT-5-89" edge="1">
          <mxGeometry width="50" height="50" relative="1" as="geometry">
            <mxPoint x="550" y="220" as="sourcePoint" />
            <mxPoint x="600" y="170" as="targetPoint" />
          </mxGeometry>
        </mxCell>
        <mxCell id="qj97B0Ygo_D7ESW_nT-5-93" value="" style="endArrow=none;html=1;rounded=0;entryX=0.5;entryY=1;entryDx=0;entryDy=0;exitX=0.5;exitY=0;exitDx=0;exitDy=0;" parent="1" source="qj97B0Ygo_D7ESW_nT-5-86" target="qj97B0Ygo_D7ESW_nT-5-85" edge="1">
          <mxGeometry width="50" height="50" relative="1" as="geometry">
            <mxPoint x="550" y="220" as="sourcePoint" />
            <mxPoint x="600" y="170" as="targetPoint" />
          </mxGeometry>
        </mxCell>
        <mxCell id="qj97B0Ygo_D7ESW_nT-5-94" value="" style="endArrow=none;html=1;rounded=0;entryX=1;entryY=1;entryDx=0;entryDy=0;exitX=0;exitY=0;exitDx=0;exitDy=0;" parent="1" source="qj97B0Ygo_D7ESW_nT-5-88" target="qj97B0Ygo_D7ESW_nT-5-85" edge="1">
          <mxGeometry width="50" height="50" relative="1" as="geometry">
            <mxPoint x="550" y="220" as="sourcePoint" />
            <mxPoint x="600" y="170" as="targetPoint" />
          </mxGeometry>
        </mxCell>
        <mxCell id="qj97B0Ygo_D7ESW_nT-5-95" value="&lt;b&gt;REPORTS&lt;/b&gt;" style="rounded=0;whiteSpace=wrap;html=1;" parent="1" vertex="1">
          <mxGeometry x="620" y="25" width="80" height="20" as="geometry" />
        </mxCell>
        <mxCell id="qj97B0Ygo_D7ESW_nT-5-96" value="" style="endArrow=none;html=1;rounded=0;entryX=0.5;entryY=1;entryDx=0;entryDy=0;exitX=1;exitY=0;exitDx=0;exitDy=0;" parent="1" source="qj97B0Ygo_D7ESW_nT-5-31" target="qj97B0Ygo_D7ESW_nT-5-95" edge="1">
          <mxGeometry width="50" height="50" relative="1" as="geometry">
            <mxPoint x="550" y="140" as="sourcePoint" />
            <mxPoint x="600" y="90" as="targetPoint" />
          </mxGeometry>
        </mxCell>
        <mxCell id="qj97B0Ygo_D7ESW_nT-5-97" value="" style="endArrow=none;html=1;rounded=0;entryX=0.75;entryY=1;entryDx=0;entryDy=0;exitX=0;exitY=0;exitDx=0;exitDy=0;" parent="1" source="qj97B0Ygo_D7ESW_nT-5-68" target="qj97B0Ygo_D7ESW_nT-5-95" edge="1">
          <mxGeometry width="50" height="50" relative="1" as="geometry">
            <mxPoint x="650" y="170" as="sourcePoint" />
            <mxPoint x="700" y="120" as="targetPoint" />
          </mxGeometry>
        </mxCell>
        <mxCell id="qj97B0Ygo_D7ESW_nT-5-98" value="RDETAILS" style="ellipse;whiteSpace=wrap;html=1;" parent="1" vertex="1">
          <mxGeometry x="710" y="20" width="80" height="30" as="geometry" />
        </mxCell>
        <mxCell id="qj97B0Ygo_D7ESW_nT-5-99" value="&lt;u&gt;&lt;b&gt;REPORTID&lt;/b&gt;&lt;/u&gt;" style="ellipse;whiteSpace=wrap;html=1;" parent="1" vertex="1">
          <mxGeometry x="525" y="-10" width="100" height="30" as="geometry" />
        </mxCell>
        <mxCell id="qj97B0Ygo_D7ESW_nT-5-100" value="REPORTDATE" style="ellipse;whiteSpace=wrap;html=1;" parent="1" vertex="1">
          <mxGeometry x="720" y="-35" width="100" height="40" as="geometry" />
        </mxCell>
        <mxCell id="qj97B0Ygo_D7ESW_nT-5-101" value="RSTATUS" style="ellipse;whiteSpace=wrap;html=1;" parent="1" vertex="1">
          <mxGeometry x="580" y="-40" width="70" height="30" as="geometry" />
        </mxCell>
        <mxCell id="qj97B0Ygo_D7ESW_nT-5-104" value="OFFICERID" style="ellipse;whiteSpace=wrap;html=1;align=center;dashed=1;" parent="1" vertex="1">
          <mxGeometry x="620" y="-60" width="70" height="20" as="geometry" />
        </mxCell>
        <mxCell id="qj97B0Ygo_D7ESW_nT-5-105" value="INCIDENTID" style="ellipse;whiteSpace=wrap;html=1;align=center;dashed=1;" parent="1" vertex="1">
          <mxGeometry x="695" y="-60" width="80" height="20" as="geometry" />
        </mxCell>
        <mxCell id="qj97B0Ygo_D7ESW_nT-5-106" value="" style="endArrow=none;html=1;rounded=0;entryX=1;entryY=1;entryDx=0;entryDy=0;exitX=0.5;exitY=0;exitDx=0;exitDy=0;" parent="1" source="qj97B0Ygo_D7ESW_nT-5-95" target="qj97B0Ygo_D7ESW_nT-5-99" edge="1">
          <mxGeometry width="50" height="50" relative="1" as="geometry">
            <mxPoint x="630" y="90" as="sourcePoint" />
            <mxPoint x="680" y="40" as="targetPoint" />
          </mxGeometry>
        </mxCell>
        <mxCell id="qj97B0Ygo_D7ESW_nT-5-107" value="" style="endArrow=none;html=1;rounded=0;entryX=0;entryY=0.5;entryDx=0;entryDy=0;exitX=1;exitY=0.5;exitDx=0;exitDy=0;" parent="1" source="qj97B0Ygo_D7ESW_nT-5-95" target="qj97B0Ygo_D7ESW_nT-5-98" edge="1">
          <mxGeometry width="50" height="50" relative="1" as="geometry">
            <mxPoint x="630" y="90" as="sourcePoint" />
            <mxPoint x="680" y="40" as="targetPoint" />
          </mxGeometry>
        </mxCell>
        <mxCell id="qj97B0Ygo_D7ESW_nT-5-108" value="" style="endArrow=none;html=1;rounded=0;entryX=0;entryY=1;entryDx=0;entryDy=0;exitX=1;exitY=0;exitDx=0;exitDy=0;" parent="1" source="qj97B0Ygo_D7ESW_nT-5-95" target="qj97B0Ygo_D7ESW_nT-5-100" edge="1">
          <mxGeometry width="50" height="50" relative="1" as="geometry">
            <mxPoint x="630" y="90" as="sourcePoint" />
            <mxPoint x="680" y="40" as="targetPoint" />
          </mxGeometry>
        </mxCell>
        <mxCell id="qj97B0Ygo_D7ESW_nT-5-109" value="" style="endArrow=none;html=1;rounded=0;entryX=1;entryY=1;entryDx=0;entryDy=0;exitX=0.5;exitY=0;exitDx=0;exitDy=0;" parent="1" source="qj97B0Ygo_D7ESW_nT-5-95" target="qj97B0Ygo_D7ESW_nT-5-101" edge="1">
          <mxGeometry width="50" height="50" relative="1" as="geometry">
            <mxPoint x="630" y="90" as="sourcePoint" />
            <mxPoint x="680" y="40" as="targetPoint" />
          </mxGeometry>
        </mxCell>
        <mxCell id="qj97B0Ygo_D7ESW_nT-5-110" value="" style="endArrow=none;html=1;rounded=0;entryX=0.5;entryY=1;entryDx=0;entryDy=0;exitX=0.75;exitY=0;exitDx=0;exitDy=0;" parent="1" source="qj97B0Ygo_D7ESW_nT-5-95" target="qj97B0Ygo_D7ESW_nT-5-104" edge="1">
          <mxGeometry width="50" height="50" relative="1" as="geometry">
            <mxPoint x="630" y="90" as="sourcePoint" />
            <mxPoint x="680" y="40" as="targetPoint" />
          </mxGeometry>
        </mxCell>
        <mxCell id="qj97B0Ygo_D7ESW_nT-5-111" value="" style="endArrow=none;html=1;rounded=0;entryX=0.5;entryY=1;entryDx=0;entryDy=0;exitX=0.75;exitY=0;exitDx=0;exitDy=0;" parent="1" source="qj97B0Ygo_D7ESW_nT-5-95" target="qj97B0Ygo_D7ESW_nT-5-105" edge="1">
          <mxGeometry width="50" height="50" relative="1" as="geometry">
            <mxPoint x="630" y="90" as="sourcePoint" />
            <mxPoint x="680" y="40" as="targetPoint" />
          </mxGeometry>
        </mxCell>
      </root>
    </mxGraphModel>
  </diagram>
</mxfile>
